<svg xmlns="http://www.w3.org/2000/svg" viewBox="-73.8 87.1 315 31.2"><path fill="#231F20" d="M-14.3 106.2c0 1.6-.2 3.2-.6 4.6-.4 1.5-1 2.7-1.9 3.8-.9 1.1-2 2-3.5 2.6-1.4.7-3.2 1-5.2 1s-3.8-.3-5.2-1c-1.4-.7-2.6-1.5-3.5-2.6-.9-1.1-1.5-2.4-1.9-3.8-.4-1.5-.6-3-.6-4.6V87.8h3.5v17.9c0 1.2.1 2.4.4 3.5.3 1.1.7 2.1 1.3 3 .6.9 1.4 1.6 2.3 2.1 1 .5 2.2.8 3.7.8s2.7-.3 3.7-.8 1.8-1.2 2.3-2.1 1-1.9 1.3-3c.3-1.1.4-2.3.4-3.5V87.8h3.5v18.4zm33.2-12.3c-.9-1.2-2-2.1-3.3-2.7-1.3-.6-2.7-.9-4.1-.9-1.6 0-3.2.3-4.5 1-1.4.7-2.6 1.6-3.6 2.7s-1.8 2.4-2.3 3.9c-.6 1.5-.8 3.1-.8 4.7 0 1.7.3 3.3.8 4.8.6 1.5 1.3 2.8 2.3 3.9 1 1.1 2.2 2 3.6 2.6 1.4.6 2.9 1 4.6 1 1.8 0 3.4-.4 4.9-1.1 1.4-.7 2.7-1.7 3.7-3.1l2.6 2.2c-1.3 1.8-3 3.1-4.8 3.9-1.9.8-4 1.3-6.4 1.3-2.1 0-4.1-.4-6-1.2-1.8-.8-3.4-1.9-4.8-3.2-1.4-1.4-2.4-3-3.2-4.9-.8-1.9-1.2-4-1.2-6.2s.4-4.2 1.1-6.1S-.7 93 .6 91.6c1.3-1.4 2.9-2.5 4.8-3.3 1.8-.8 3.9-1.2 6.1-1.2 2 0 3.9.4 5.8 1.1 1.9.7 3.4 1.9 4.7 3.6l-3.1 2.1zm21 23.6h3.5V95.1h-3.5v22.4zm3.5-26.4h9.8v-3.3H30.1v3.3h13.3zm20.5-3.3h3.5v29.7h-3.5zm29.7 30.4c-2.3 0-4.3-.4-6.2-1.2-1.9-.8-3.5-1.9-4.9-3.2-1.4-1.4-2.5-3-3.2-4.9-.8-1.9-1.2-4-1.2-6.2s.4-4.3 1.2-6.2c.8-1.9 1.8-3.6 3.2-4.9s3-2.5 4.9-3.2c1.9-.8 4-1.2 6.2-1.2 2.3 0 4.3.4 6.2 1.2 1.9.8 3.5 1.9 4.9 3.2s2.5 3 3.2 4.9c.8 1.9 1.2 4 1.2 6.2s-.4 4.3-1.2 6.2c-.8 1.9-1.8 3.6-3.2 4.9-1.4 1.4-3 2.5-4.9 3.2-1.9.9-4 1.2-6.2 1.2m0-3.2c1.7 0 3.3-.3 4.8-1 1.4-.6 2.7-1.5 3.7-2.6s1.8-2.4 2.4-3.9c.6-1.5.9-3.1.9-4.8s-.3-3.3-.9-4.8c-.6-1.5-1.4-2.8-2.4-3.9s-2.3-2-3.7-2.6c-1.4-.6-3-1-4.8-1-1.7 0-3.3.3-4.8 1-1.4.6-2.7 1.5-3.7 2.6s-1.8 2.4-2.4 3.9c-.6 1.5-.9 3.1-.9 4.8s.3 3.3.9 4.8c.6 1.5 1.4 2.8 2.4 3.9s2.3 2 3.7 2.6c1.4.7 3 1 4.8 1m26.2-27.2h4.4l17.2 24.7h.1V87.8h3.5v29.7h-4.5l-17.1-24.7h-.1v24.7h-3.5"/><path d="M-44.8 117.5l-12.6-29.7h-3.3l-6.6 15h3.7l4.4-10.4h.1l4.5 11.3 3.4 8.3 2.3 5.5h4.1zm-25.5-7.7c-1.8 3.9-3.5 7.7-3.5 7.7h3.9s1.8-4.1 2.2-5.1c1-2.2.9-2.5 3-2.5h7.9l-1.4-3.3h-7.6c-2.1.1-3.2.4-4.5 3.2"/><path fill="#231F20" d="M196.7 117.6h3.5V95.2h-3.5v22.4zm3.5-26.3h9.8V88h-23.1v3.3h13.3z"/><path d="M184.7 117.7L172 88h-3.3l-6.6 15h3.7l4.4-10.4h.1l4.5 11.3 3.4 8.3 2.3 5.5h4.2zm-25.6-7.7c-1.8 3.9-3.5 7.7-3.5 7.7h3.9s1.8-4.1 2.2-5.1c1-2.2.9-2.5 3-2.5h7.9l-1.4-3.3h-7.6c-2 .1-3.2.4-4.5 3.2m82.1 7.7L228.6 88h-3.3l-6.6 15h3.7l4.4-10.4h.1l4.5 11.3 3.4 8.3 2.3 5.5h4.1zm-25.5-7.7c-1.8 3.9-3.5 7.7-3.5 7.7h3.9s1.8-4.1 2.2-5.1c1-2.2.9-2.5 3-2.5h7.9l-1.4-3.3h-7.6c-2 .1-3.2.4-4.5 3.2"/></svg>